<mxfile host="app.diagrams.net" agent="Mozilla/5.0 (X11; Linux x86_64) AppleWebKit/537.36 (KHTML, like Gecko) Chrome/133.0.0.0 Safari/537.36" version="26.0.6">
  <diagram name="Pagina-1" id="kxqagtVsS983-61vKiD7">
    <mxGraphModel dx="1624" dy="940" grid="1" gridSize="10" guides="1" tooltips="1" connect="1" arrows="1" fold="1" page="1" pageScale="1" pageWidth="1169" pageHeight="827" math="0" shadow="0">
      <root>
        <mxCell id="0" />
        <mxCell id="1" parent="0" />
        <mxCell id="VVLR115FBgZNrEKpItkU-3" value="" style="edgeStyle=orthogonalEdgeStyle;rounded=0;orthogonalLoop=1;jettySize=auto;html=1;" edge="1" parent="1" source="VVLR115FBgZNrEKpItkU-1" target="VVLR115FBgZNrEKpItkU-2">
          <mxGeometry relative="1" as="geometry" />
        </mxCell>
        <mxCell id="VVLR115FBgZNrEKpItkU-1" value="Php" style="text;strokeColor=none;fillColor=none;html=1;fontSize=24;fontStyle=1;verticalAlign=middle;align=center;" vertex="1" parent="1">
          <mxGeometry x="70" y="170" width="100" height="40" as="geometry" />
        </mxCell>
        <mxCell id="VVLR115FBgZNrEKpItkU-5" value="" style="edgeStyle=orthogonalEdgeStyle;rounded=0;orthogonalLoop=1;jettySize=auto;html=1;" edge="1" parent="1" source="VVLR115FBgZNrEKpItkU-2" target="VVLR115FBgZNrEKpItkU-4">
          <mxGeometry relative="1" as="geometry" />
        </mxCell>
        <mxCell id="VVLR115FBgZNrEKpItkU-2" value="server-side" style="text;strokeColor=none;fillColor=none;html=1;fontSize=24;fontStyle=1;verticalAlign=middle;align=center;" vertex="1" parent="1">
          <mxGeometry x="240" y="170" width="170" height="40" as="geometry" />
        </mxCell>
        <mxCell id="VVLR115FBgZNrEKpItkU-7" value="" style="edgeStyle=orthogonalEdgeStyle;rounded=0;orthogonalLoop=1;jettySize=auto;html=1;" edge="1" parent="1" source="VVLR115FBgZNrEKpItkU-4" target="VVLR115FBgZNrEKpItkU-6">
          <mxGeometry relative="1" as="geometry" />
        </mxCell>
        <mxCell id="VVLR115FBgZNrEKpItkU-9" value="" style="edgeStyle=orthogonalEdgeStyle;rounded=0;orthogonalLoop=1;jettySize=auto;html=1;" edge="1" parent="1" source="VVLR115FBgZNrEKpItkU-4" target="VVLR115FBgZNrEKpItkU-8">
          <mxGeometry relative="1" as="geometry" />
        </mxCell>
        <mxCell id="VVLR115FBgZNrEKpItkU-4" value="apache" style="text;strokeColor=#82b366;fillColor=#d5e8d4;html=1;fontSize=24;fontStyle=1;verticalAlign=middle;align=center;" vertex="1" parent="1">
          <mxGeometry x="490" y="170" width="150" height="40" as="geometry" />
        </mxCell>
        <mxCell id="VVLR115FBgZNrEKpItkU-6" value="nginx" style="text;strokeColor=#b85450;fillColor=#f8cecc;html=1;fontSize=24;fontStyle=1;verticalAlign=middle;align=center;" vertex="1" parent="1">
          <mxGeometry x="720" y="170" width="150" height="40" as="geometry" />
        </mxCell>
        <mxCell id="VVLR115FBgZNrEKpItkU-52" value="response" style="edgeStyle=orthogonalEdgeStyle;rounded=0;orthogonalLoop=1;jettySize=auto;html=1;exitX=0;exitY=0.75;exitDx=0;exitDy=0;entryX=1;entryY=0.75;entryDx=0;entryDy=0;" edge="1" parent="1" source="VVLR115FBgZNrEKpItkU-8" target="VVLR115FBgZNrEKpItkU-10">
          <mxGeometry relative="1" as="geometry" />
        </mxCell>
        <mxCell id="VVLR115FBgZNrEKpItkU-54" style="edgeStyle=orthogonalEdgeStyle;rounded=0;orthogonalLoop=1;jettySize=auto;html=1;exitX=0.5;exitY=1;exitDx=0;exitDy=0;" edge="1" parent="1" source="VVLR115FBgZNrEKpItkU-8" target="VVLR115FBgZNrEKpItkU-51">
          <mxGeometry relative="1" as="geometry" />
        </mxCell>
        <mxCell id="VVLR115FBgZNrEKpItkU-8" value="web server" style="text;strokeColor=#82b366;fillColor=#d5e8d4;html=1;fontSize=24;fontStyle=1;verticalAlign=middle;align=center;" vertex="1" parent="1">
          <mxGeometry x="490" y="270" width="150" height="40" as="geometry" />
        </mxCell>
        <mxCell id="VVLR115FBgZNrEKpItkU-11" value="request" style="edgeStyle=orthogonalEdgeStyle;rounded=0;orthogonalLoop=1;jettySize=auto;html=1;exitX=1;exitY=0.5;exitDx=0;exitDy=0;entryX=0;entryY=0.5;entryDx=0;entryDy=0;" edge="1" parent="1" source="VVLR115FBgZNrEKpItkU-10" target="VVLR115FBgZNrEKpItkU-8">
          <mxGeometry relative="1" as="geometry" />
        </mxCell>
        <mxCell id="VVLR115FBgZNrEKpItkU-10" value="client" style="text;strokeColor=#82b366;fillColor=#d5e8d4;html=1;fontSize=24;fontStyle=1;verticalAlign=middle;align=center;" vertex="1" parent="1">
          <mxGeometry x="70" y="270" width="150" height="40" as="geometry" />
        </mxCell>
        <mxCell id="VVLR115FBgZNrEKpItkU-12" value="http" style="text;strokeColor=none;fillColor=none;html=1;fontSize=24;fontStyle=1;verticalAlign=middle;align=center;" vertex="1" parent="1">
          <mxGeometry x="320" y="260" width="70" height="20" as="geometry" />
        </mxCell>
        <mxCell id="VVLR115FBgZNrEKpItkU-15" value="GET" style="text;strokeColor=none;fillColor=none;html=1;fontSize=24;fontStyle=1;verticalAlign=middle;align=center;" vertex="1" parent="1">
          <mxGeometry x="300" y="355" width="100" height="40" as="geometry" />
        </mxCell>
        <mxCell id="VVLR115FBgZNrEKpItkU-20" style="edgeStyle=orthogonalEdgeStyle;rounded=0;orthogonalLoop=1;jettySize=auto;html=1;exitX=1;exitY=0.5;exitDx=0;exitDy=0;" edge="1" parent="1" source="VVLR115FBgZNrEKpItkU-16">
          <mxGeometry relative="1" as="geometry">
            <mxPoint x="440" y="355" as="targetPoint" />
          </mxGeometry>
        </mxCell>
        <mxCell id="VVLR115FBgZNrEKpItkU-16" value="POST" style="text;strokeColor=none;fillColor=none;html=1;fontSize=24;fontStyle=1;verticalAlign=middle;align=center;" vertex="1" parent="1">
          <mxGeometry x="300" y="325" width="100" height="40" as="geometry" />
        </mxCell>
        <mxCell id="VVLR115FBgZNrEKpItkU-17" value="PUT" style="text;strokeColor=none;fillColor=none;html=1;fontSize=24;fontStyle=1;verticalAlign=middle;align=center;" vertex="1" parent="1">
          <mxGeometry x="300" y="385" width="100" height="40" as="geometry" />
        </mxCell>
        <mxCell id="VVLR115FBgZNrEKpItkU-23" style="edgeStyle=orthogonalEdgeStyle;rounded=0;orthogonalLoop=1;jettySize=auto;html=1;exitX=1;exitY=0.5;exitDx=0;exitDy=0;" edge="1" parent="1" source="VVLR115FBgZNrEKpItkU-18">
          <mxGeometry relative="1" as="geometry">
            <mxPoint x="440" y="435.0344827586207" as="targetPoint" />
          </mxGeometry>
        </mxCell>
        <mxCell id="VVLR115FBgZNrEKpItkU-18" value="DELETE" style="text;strokeColor=none;fillColor=none;html=1;fontSize=24;fontStyle=1;verticalAlign=middle;align=center;" vertex="1" parent="1">
          <mxGeometry x="300" y="415" width="100" height="40" as="geometry" />
        </mxCell>
        <mxCell id="VVLR115FBgZNrEKpItkU-19" value="C&lt;div&gt;R&lt;/div&gt;&lt;div&gt;U&lt;/div&gt;&lt;div&gt;D&lt;/div&gt;" style="text;strokeColor=none;fillColor=none;html=1;fontSize=24;fontStyle=1;verticalAlign=middle;align=center;" vertex="1" parent="1">
          <mxGeometry x="410" y="375" width="100" height="40" as="geometry" />
        </mxCell>
        <mxCell id="VVLR115FBgZNrEKpItkU-21" style="edgeStyle=orthogonalEdgeStyle;rounded=0;orthogonalLoop=1;jettySize=auto;html=1;exitX=1;exitY=0.5;exitDx=0;exitDy=0;entryX=0.301;entryY=0.053;entryDx=0;entryDy=0;entryPerimeter=0;" edge="1" parent="1" source="VVLR115FBgZNrEKpItkU-15" target="VVLR115FBgZNrEKpItkU-19">
          <mxGeometry relative="1" as="geometry" />
        </mxCell>
        <mxCell id="VVLR115FBgZNrEKpItkU-22" style="edgeStyle=orthogonalEdgeStyle;rounded=0;orthogonalLoop=1;jettySize=auto;html=1;exitX=1;exitY=0.5;exitDx=0;exitDy=0;entryX=0.3;entryY=0.742;entryDx=0;entryDy=0;entryPerimeter=0;" edge="1" parent="1" source="VVLR115FBgZNrEKpItkU-17" target="VVLR115FBgZNrEKpItkU-19">
          <mxGeometry relative="1" as="geometry" />
        </mxCell>
        <mxCell id="VVLR115FBgZNrEKpItkU-56" style="edgeStyle=orthogonalEdgeStyle;rounded=0;orthogonalLoop=1;jettySize=auto;html=1;exitX=0;exitY=0;exitDx=0;exitDy=52.5;exitPerimeter=0;" edge="1" parent="1" source="VVLR115FBgZNrEKpItkU-24" target="VVLR115FBgZNrEKpItkU-51">
          <mxGeometry relative="1" as="geometry" />
        </mxCell>
        <mxCell id="VVLR115FBgZNrEKpItkU-24" value="DB" style="shape=cylinder3;whiteSpace=wrap;html=1;boundedLbl=1;backgroundOutline=1;size=15;" vertex="1" parent="1">
          <mxGeometry x="750" y="365" width="65" height="80" as="geometry" />
        </mxCell>
        <mxCell id="VVLR115FBgZNrEKpItkU-25" value="" style="dashed=0;outlineConnect=0;html=1;align=center;labelPosition=center;verticalLabelPosition=bottom;verticalAlign=top;shape=mxgraph.weblogos.html5" vertex="1" parent="1">
          <mxGeometry x="118.8" y="344" width="52.400000000000006" height="74" as="geometry" />
        </mxCell>
        <mxCell id="VVLR115FBgZNrEKpItkU-26" value="" style="strokeWidth=1;shadow=0;dashed=0;align=center;html=1;shape=mxgraph.mockup.containers.browserWindow;rSize=0;strokeColor=#666666;strokeColor2=#008cff;strokeColor3=#c4c4c4;mainText=,;recursiveResize=0;" vertex="1" parent="1">
          <mxGeometry x="20" y="480" width="310" height="310" as="geometry" />
        </mxCell>
        <mxCell id="VVLR115FBgZNrEKpItkU-27" value="Page 1" style="strokeWidth=1;shadow=0;dashed=0;align=center;html=1;shape=mxgraph.mockup.containers.anchor;fontSize=17;fontColor=#666666;align=left;whiteSpace=wrap;" vertex="1" parent="VVLR115FBgZNrEKpItkU-26">
          <mxGeometry x="60" y="12" width="110" height="26" as="geometry" />
        </mxCell>
        <mxCell id="VVLR115FBgZNrEKpItkU-28" value="https://www.draw.io" style="strokeWidth=1;shadow=0;dashed=0;align=center;html=1;shape=mxgraph.mockup.containers.anchor;rSize=0;fontSize=17;fontColor=#666666;align=left;" vertex="1" parent="VVLR115FBgZNrEKpItkU-26">
          <mxGeometry x="130" y="60" width="250" height="26" as="geometry" />
        </mxCell>
        <mxCell id="VVLR115FBgZNrEKpItkU-29" value="Assets" style="childLayout=tableLayout;recursiveResize=0;strokeColor=#98bf21;fillColor=#A7C942;shadow=1;" vertex="1" parent="VVLR115FBgZNrEKpItkU-26">
          <mxGeometry x="10" y="140" width="280" height="160" as="geometry" />
        </mxCell>
        <mxCell id="VVLR115FBgZNrEKpItkU-30" style="shape=tableRow;horizontal=0;startSize=0;swimlaneHead=0;swimlaneBody=0;top=0;left=0;bottom=0;right=0;dropTarget=0;collapsible=0;recursiveResize=0;expand=0;fontStyle=0;strokeColor=inherit;fillColor=#ffffff;" vertex="1" parent="VVLR115FBgZNrEKpItkU-29">
          <mxGeometry width="280" height="33" as="geometry" />
        </mxCell>
        <mxCell id="VVLR115FBgZNrEKpItkU-31" value="Title 1" style="connectable=0;recursiveResize=0;strokeColor=inherit;fillColor=#A7C942;align=center;fontStyle=1;fontColor=#FFFFFF;html=1;" vertex="1" parent="VVLR115FBgZNrEKpItkU-30">
          <mxGeometry width="93" height="33" as="geometry">
            <mxRectangle width="93" height="33" as="alternateBounds" />
          </mxGeometry>
        </mxCell>
        <mxCell id="VVLR115FBgZNrEKpItkU-32" value="Title 2" style="connectable=0;recursiveResize=0;strokeColor=inherit;fillColor=#A7C942;align=center;fontStyle=1;fontColor=#FFFFFF;html=1;" vertex="1" parent="VVLR115FBgZNrEKpItkU-30">
          <mxGeometry x="93" width="94" height="33" as="geometry">
            <mxRectangle width="94" height="33" as="alternateBounds" />
          </mxGeometry>
        </mxCell>
        <mxCell id="VVLR115FBgZNrEKpItkU-33" value="Title 3" style="connectable=0;recursiveResize=0;strokeColor=inherit;fillColor=#A7C942;align=center;fontStyle=1;fontColor=#FFFFFF;html=1;" vertex="1" parent="VVLR115FBgZNrEKpItkU-30">
          <mxGeometry x="187" width="93" height="33" as="geometry">
            <mxRectangle width="93" height="33" as="alternateBounds" />
          </mxGeometry>
        </mxCell>
        <mxCell id="VVLR115FBgZNrEKpItkU-34" value="" style="shape=tableRow;horizontal=0;startSize=0;swimlaneHead=0;swimlaneBody=0;top=0;left=0;bottom=0;right=0;dropTarget=0;collapsible=0;recursiveResize=0;expand=0;fontStyle=0;strokeColor=inherit;fillColor=#ffffff;" vertex="1" parent="VVLR115FBgZNrEKpItkU-29">
          <mxGeometry y="33" width="280" height="32" as="geometry" />
        </mxCell>
        <mxCell id="VVLR115FBgZNrEKpItkU-35" value="Value 1" style="connectable=0;recursiveResize=0;strokeColor=inherit;fillColor=inherit;align=center;whiteSpace=wrap;html=1;" vertex="1" parent="VVLR115FBgZNrEKpItkU-34">
          <mxGeometry width="93" height="32" as="geometry">
            <mxRectangle width="93" height="32" as="alternateBounds" />
          </mxGeometry>
        </mxCell>
        <mxCell id="VVLR115FBgZNrEKpItkU-36" value="Value 2" style="connectable=0;recursiveResize=0;strokeColor=inherit;fillColor=inherit;align=center;whiteSpace=wrap;html=1;" vertex="1" parent="VVLR115FBgZNrEKpItkU-34">
          <mxGeometry x="93" width="94" height="32" as="geometry">
            <mxRectangle width="94" height="32" as="alternateBounds" />
          </mxGeometry>
        </mxCell>
        <mxCell id="VVLR115FBgZNrEKpItkU-37" value="Value 3" style="connectable=0;recursiveResize=0;strokeColor=inherit;fillColor=inherit;align=center;whiteSpace=wrap;html=1;" vertex="1" parent="VVLR115FBgZNrEKpItkU-34">
          <mxGeometry x="187" width="93" height="32" as="geometry">
            <mxRectangle width="93" height="32" as="alternateBounds" />
          </mxGeometry>
        </mxCell>
        <mxCell id="VVLR115FBgZNrEKpItkU-38" value="" style="shape=tableRow;horizontal=0;startSize=0;swimlaneHead=0;swimlaneBody=0;top=0;left=0;bottom=0;right=0;dropTarget=0;collapsible=0;recursiveResize=0;expand=0;fontStyle=1;strokeColor=inherit;fillColor=#EAF2D3;" vertex="1" parent="VVLR115FBgZNrEKpItkU-29">
          <mxGeometry y="65" width="280" height="31" as="geometry" />
        </mxCell>
        <mxCell id="VVLR115FBgZNrEKpItkU-39" value="Value 4" style="connectable=0;recursiveResize=0;strokeColor=inherit;fillColor=inherit;whiteSpace=wrap;html=1;" vertex="1" parent="VVLR115FBgZNrEKpItkU-38">
          <mxGeometry width="93" height="31" as="geometry">
            <mxRectangle width="93" height="31" as="alternateBounds" />
          </mxGeometry>
        </mxCell>
        <mxCell id="VVLR115FBgZNrEKpItkU-40" value="Value 5" style="connectable=0;recursiveResize=0;strokeColor=inherit;fillColor=inherit;whiteSpace=wrap;html=1;" vertex="1" parent="VVLR115FBgZNrEKpItkU-38">
          <mxGeometry x="93" width="94" height="31" as="geometry">
            <mxRectangle width="94" height="31" as="alternateBounds" />
          </mxGeometry>
        </mxCell>
        <mxCell id="VVLR115FBgZNrEKpItkU-41" value="Value 6" style="connectable=0;recursiveResize=0;strokeColor=inherit;fillColor=inherit;whiteSpace=wrap;html=1;" vertex="1" parent="VVLR115FBgZNrEKpItkU-38">
          <mxGeometry x="187" width="93" height="31" as="geometry">
            <mxRectangle width="93" height="31" as="alternateBounds" />
          </mxGeometry>
        </mxCell>
        <mxCell id="VVLR115FBgZNrEKpItkU-42" value="" style="shape=tableRow;horizontal=0;startSize=0;swimlaneHead=0;swimlaneBody=0;top=0;left=0;bottom=0;right=0;dropTarget=0;collapsible=0;recursiveResize=0;expand=0;fontStyle=0;strokeColor=inherit;fillColor=#ffffff;" vertex="1" parent="VVLR115FBgZNrEKpItkU-29">
          <mxGeometry y="96" width="280" height="33" as="geometry" />
        </mxCell>
        <mxCell id="VVLR115FBgZNrEKpItkU-43" value="Value 7" style="connectable=0;recursiveResize=0;strokeColor=inherit;fillColor=inherit;fontStyle=0;align=center;whiteSpace=wrap;html=1;" vertex="1" parent="VVLR115FBgZNrEKpItkU-42">
          <mxGeometry width="93" height="33" as="geometry">
            <mxRectangle width="93" height="33" as="alternateBounds" />
          </mxGeometry>
        </mxCell>
        <mxCell id="VVLR115FBgZNrEKpItkU-44" value="Value 8" style="connectable=0;recursiveResize=0;strokeColor=inherit;fillColor=inherit;fontStyle=0;align=center;whiteSpace=wrap;html=1;" vertex="1" parent="VVLR115FBgZNrEKpItkU-42">
          <mxGeometry x="93" width="94" height="33" as="geometry">
            <mxRectangle width="94" height="33" as="alternateBounds" />
          </mxGeometry>
        </mxCell>
        <mxCell id="VVLR115FBgZNrEKpItkU-45" value="Value 9" style="connectable=0;recursiveResize=0;strokeColor=inherit;fillColor=inherit;fontStyle=0;align=center;whiteSpace=wrap;html=1;" vertex="1" parent="VVLR115FBgZNrEKpItkU-42">
          <mxGeometry x="187" width="93" height="33" as="geometry">
            <mxRectangle width="93" height="33" as="alternateBounds" />
          </mxGeometry>
        </mxCell>
        <mxCell id="VVLR115FBgZNrEKpItkU-46" value="" style="shape=tableRow;horizontal=0;startSize=0;swimlaneHead=0;swimlaneBody=0;top=0;left=0;bottom=0;right=0;dropTarget=0;collapsible=0;recursiveResize=0;expand=0;fontStyle=1;strokeColor=inherit;fillColor=#EAF2D3;" vertex="1" parent="VVLR115FBgZNrEKpItkU-29">
          <mxGeometry y="129" width="280" height="31" as="geometry" />
        </mxCell>
        <mxCell id="VVLR115FBgZNrEKpItkU-47" value="Value 10" style="connectable=0;recursiveResize=0;strokeColor=inherit;fillColor=inherit;whiteSpace=wrap;html=1;" vertex="1" parent="VVLR115FBgZNrEKpItkU-46">
          <mxGeometry width="93" height="31" as="geometry">
            <mxRectangle width="93" height="31" as="alternateBounds" />
          </mxGeometry>
        </mxCell>
        <mxCell id="VVLR115FBgZNrEKpItkU-48" value="Value 11" style="connectable=0;recursiveResize=0;strokeColor=inherit;fillColor=inherit;whiteSpace=wrap;html=1;" vertex="1" parent="VVLR115FBgZNrEKpItkU-46">
          <mxGeometry x="93" width="94" height="31" as="geometry">
            <mxRectangle width="94" height="31" as="alternateBounds" />
          </mxGeometry>
        </mxCell>
        <mxCell id="VVLR115FBgZNrEKpItkU-49" value="Value 12" style="connectable=0;recursiveResize=0;strokeColor=inherit;fillColor=inherit;whiteSpace=wrap;html=1;" vertex="1" parent="VVLR115FBgZNrEKpItkU-46">
          <mxGeometry x="187" width="93" height="31" as="geometry">
            <mxRectangle width="93" height="31" as="alternateBounds" />
          </mxGeometry>
        </mxCell>
        <mxCell id="VVLR115FBgZNrEKpItkU-58" style="edgeStyle=orthogonalEdgeStyle;rounded=0;orthogonalLoop=1;jettySize=auto;html=1;exitX=0.5;exitY=1;exitDx=0;exitDy=0;exitPerimeter=0;" edge="1" parent="1" source="VVLR115FBgZNrEKpItkU-51" target="VVLR115FBgZNrEKpItkU-57">
          <mxGeometry relative="1" as="geometry" />
        </mxCell>
        <mxCell id="VVLR115FBgZNrEKpItkU-68" style="edgeStyle=orthogonalEdgeStyle;rounded=0;orthogonalLoop=1;jettySize=auto;html=1;exitX=1;exitY=0.75;exitDx=0;exitDy=0;exitPerimeter=0;" edge="1" parent="1" source="VVLR115FBgZNrEKpItkU-51" target="VVLR115FBgZNrEKpItkU-67">
          <mxGeometry relative="1" as="geometry" />
        </mxCell>
        <mxCell id="VVLR115FBgZNrEKpItkU-51" value="" style="outlineConnect=0;dashed=0;verticalLabelPosition=bottom;verticalAlign=top;align=center;html=1;shape=mxgraph.aws3.android;fillColor=#5A69A4;gradientColor=none;" vertex="1" parent="1">
          <mxGeometry x="526.5" y="361" width="73.5" height="84" as="geometry" />
        </mxCell>
        <mxCell id="VVLR115FBgZNrEKpItkU-55" style="edgeStyle=orthogonalEdgeStyle;rounded=0;orthogonalLoop=1;jettySize=auto;html=1;exitX=1;exitY=0.25;exitDx=0;exitDy=0;exitPerimeter=0;entryX=0;entryY=0;entryDx=0;entryDy=27.5;entryPerimeter=0;" edge="1" parent="1" source="VVLR115FBgZNrEKpItkU-51" target="VVLR115FBgZNrEKpItkU-24">
          <mxGeometry relative="1" as="geometry" />
        </mxCell>
        <mxCell id="VVLR115FBgZNrEKpItkU-57" value="" style="dashed=0;outlineConnect=0;html=1;align=center;labelPosition=center;verticalLabelPosition=bottom;verticalAlign=top;shape=mxgraph.weblogos.html5" vertex="1" parent="1">
          <mxGeometry x="510" y="560" width="52.400000000000006" height="74" as="geometry" />
        </mxCell>
        <mxCell id="VVLR115FBgZNrEKpItkU-62" value="OOP&amp;nbsp;" style="text;strokeColor=#d6b656;fillColor=#fff2cc;html=1;fontSize=24;fontStyle=1;verticalAlign=middle;align=center;" vertex="1" parent="1">
          <mxGeometry x="28.8" y="12" width="211.2" height="30" as="geometry" />
        </mxCell>
        <mxCell id="VVLR115FBgZNrEKpItkU-63" value="procedurale" style="text;strokeColor=#d6b656;fillColor=#fff2cc;html=1;fontSize=24;fontStyle=1;verticalAlign=middle;align=center;" vertex="1" parent="1">
          <mxGeometry x="28.8" y="52" width="211.2" height="30" as="geometry" />
        </mxCell>
        <mxCell id="VVLR115FBgZNrEKpItkU-64" value="funzionale" style="text;strokeColor=#d6b656;fillColor=#fff2cc;html=1;fontSize=24;fontStyle=1;verticalAlign=middle;align=center;" vertex="1" parent="1">
          <mxGeometry x="28.8" y="90" width="211.2" height="30" as="geometry" />
        </mxCell>
        <mxCell id="VVLR115FBgZNrEKpItkU-65" value="multi paradigma" style="text;strokeColor=#6c8ebf;fillColor=#dae8fc;html=1;fontSize=24;fontStyle=1;verticalAlign=middle;align=center;" vertex="1" parent="1">
          <mxGeometry x="28.80000000000001" y="130" width="210" height="40" as="geometry" />
        </mxCell>
        <mxCell id="VVLR115FBgZNrEKpItkU-66" value="" style="sketch=0;outlineConnect=0;fontColor=#232F3E;gradientColor=none;fillColor=#232F3D;strokeColor=none;dashed=0;verticalLabelPosition=bottom;verticalAlign=top;align=center;html=1;fontSize=12;fontStyle=0;aspect=fixed;pointerEvents=1;shape=mxgraph.aws4.mobile_client;" vertex="1" parent="1">
          <mxGeometry x="20" y="260" width="41" height="78" as="geometry" />
        </mxCell>
        <mxCell id="VVLR115FBgZNrEKpItkU-67" value="" style="dashed=0;outlineConnect=0;html=1;align=center;labelPosition=center;verticalLabelPosition=bottom;verticalAlign=top;shape=mxgraph.weblogos.json" vertex="1" parent="1">
          <mxGeometry x="600" y="560" width="70" height="75.8" as="geometry" />
        </mxCell>
      </root>
    </mxGraphModel>
  </diagram>
</mxfile>
